<?xml version="1.0" encoding="UTF-8"?>
<svg id="Layer_1" data-name="Layer 1" xmlns="http://www.w3.org/2000/svg" xmlns:xlink="http://www.w3.org/1999/xlink" viewBox="0 0 843.22 179.68">
  <defs>
    <style>
      .cls-1 {
        fill: url(#linear-gradient);
      }

      .cls-2 {
        fill: #16252d;
      }

      .cls-3 {
        fill: url(#radial-gradient-2);
      }

      .cls-4 {
        fill: url(#linear-gradient-3);
      }

      .cls-5 {
        fill: url(#linear-gradient-2);
      }

      .cls-6 {
        fill: url(#radial-gradient);
      }
    </style>
    <linearGradient id="linear-gradient" x1="-175.45" y1="401.71" x2="-174.6" y2="402.51" gradientTransform="translate(22617.24 58396.22) scale(128.78 -145.01)" gradientUnits="userSpaceOnUse">
      <stop offset="0" stop-color="#23dba7"/>
      <stop offset=".07" stop-color="#28cfad"/>
      <stop offset=".19" stop-color="#38afbd"/>
      <stop offset=".36" stop-color="#527dd8"/>
      <stop offset=".54" stop-color="#743bfc"/>
    </linearGradient>
    <radialGradient id="radial-gradient" cx="-175.46" cy="397.04" fx="-175.46" fy="397.04" r="2.87" gradientTransform="translate(9462.38 21531.82) scale(53.81 -53.81)" gradientUnits="userSpaceOnUse">
      <stop offset=".14" stop-color="#23dba7"/>
      <stop offset=".21" stop-color="#25d5a9"/>
      <stop offset=".29" stop-color="#2dc5b2"/>
      <stop offset=".39" stop-color="#3babc0"/>
      <stop offset=".49" stop-color="#4d86d3"/>
      <stop offset=".59" stop-color="#6558ec"/>
      <stop offset=".65" stop-color="#743bfc"/>
    </radialGradient>
    <radialGradient id="radial-gradient-2" cx="-173.43" cy="389.23" fx="-173.43" fy="389.23" r="5.84" gradientTransform="translate(4602.44 10446.37) scale(26.42 -26.41)" gradientUnits="userSpaceOnUse">
      <stop offset=".14" stop-color="#23dba7"/>
      <stop offset=".21" stop-color="#25d5a9"/>
      <stop offset=".29" stop-color="#2dc5b2"/>
      <stop offset=".39" stop-color="#3babc0"/>
      <stop offset=".49" stop-color="#4d86d3"/>
      <stop offset=".59" stop-color="#6558ec"/>
      <stop offset=".65" stop-color="#743bfc"/>
    </radialGradient>
    <linearGradient id="linear-gradient-2" x1="-175.14" y1="401.57" x2="-174.74" y2="402.24" gradientTransform="translate(22397.8 60541.51) scale(123.68 -150.36)" gradientUnits="userSpaceOnUse">
      <stop offset="0" stop-color="#23dba7"/>
      <stop offset=".09" stop-color="#26d4aa"/>
      <stop offset=".22" stop-color="#2ec3b3"/>
      <stop offset=".36" stop-color="#3ca7c2"/>
      <stop offset=".52" stop-color="#5080d6"/>
      <stop offset=".69" stop-color="#694ff1"/>
      <stop offset=".75" stop-color="#743bfc"/>
    </linearGradient>
    <linearGradient id="linear-gradient-3" x1="-170.65" y1="401.42" x2="-168.53" y2="402.09" gradientTransform="translate(4706.48 60274.6) scale(22.96 -149.69)" gradientUnits="userSpaceOnUse">
      <stop offset="0" stop-color="#23dba7"/>
      <stop offset=".14" stop-color="#25d6a9"/>
      <stop offset=".3" stop-color="#2cc8b0"/>
      <stop offset=".47" stop-color="#37b2bc"/>
      <stop offset=".64" stop-color="#4793cd"/>
      <stop offset=".82" stop-color="#5b6be2"/>
      <stop offset="1" stop-color="#743bfc"/>
    </linearGradient>
  </defs>
  <path id="Path_2565" data-name="Path 2565" class="cls-1" d="m128.77,90.9c-.38-21.71-18.08-39.11-39.79-39.11h-19.22c4.26-2.97,5.31-8.83,2.34-13.09-2.97-4.26-8.83-5.31-13.09-2.34-4.26,2.97-5.31,8.83-2.34,13.09.64.91,1.43,1.7,2.34,2.34h-19.23C18.07,51.79.37,69.2,0,90.9c0,.23,0,.46,0,.69,0,9.96,6.01,18.94,15.22,22.73v.05c0,26.4,16.12,50.12,40.65,59.85,2.16,4.71,7.73,6.77,12.44,4.61,2.04-.94,3.67-2.57,4.61-4.61,24.53-9.73,40.65-33.45,40.65-59.85v-.06c9.21-3.8,15.21-12.77,15.22-22.73h0c0-.23,0-.46,0-.68h0Z"/>
  <path id="Path_2566" data-name="Path 2566" class="cls-6" d="m168.6,42.35c-.03-.18-.17-.32-.35-.35-19.68-3.13-22.99-6.44-26.12-26.12-.04-.23-.26-.39-.49-.35-.18.03-.32.17-.35.35-3.13,19.68-6.44,22.99-26.12,26.12-.23.04-.39.26-.35.49.03.18.17.32.35.35,19.68,3.13,22.99,6.44,26.12,26.12.04.23.26.39.49.35.18-.03.32-.17.35-.35,3.13-19.68,6.44-22.99,26.12-26.12.23-.04.39-.26.35-.49Z"/>
  <path id="Path_2567" data-name="Path 2567" class="cls-3" d="m103.21,13.41c9.66,1.54,11.28,3.16,12.82,12.82.02.11.13.19.24.17.09-.02.16-.08.17-.17,1.54-9.66,3.16-11.28,12.82-12.82.11-.02.19-.12.18-.24-.01-.09-.09-.17-.18-.18-9.66-1.54-11.29-3.16-12.82-12.82-.02-.11-.13-.19-.24-.17-.09.02-.16.08-.17.17-1.54,9.66-3.16,11.28-12.82,12.82-.11.02-.19.12-.18.24.01.09.09.17.18.18h0Z"/>
  <g id="Layer_1-2-2" data-name="Layer 1-2-2">
    <path id="Path_2508" data-name="Path 2508" class="cls-2" d="m267.74,158.43c-1.42,4.89-4.53,9.12-8.78,11.93-8.86-1.65-14.86-6.3-18.01-13.96-10.66,10.21-21.62,15.32-32.88,15.31-5.12.11-10.21-.81-14.97-2.7-4.07-1.66-7.75-4.16-10.8-7.32-2.9-3.03-5.12-6.63-6.53-10.58-1.43-4.01-2.16-8.24-2.14-12.5,0-12.31,3.94-21.61,11.83-27.92,7.88-6.31,18.36-9.46,31.41-9.46,3.75,0,7.43.11,11.03.34,3.55.22,7.08.63,10.58,1.24v-8.84c0-13.47-6.15-20.21-18.46-20.21-8.56,0-20.34,2.93-35.35,8.78-4.35-3.75-6.61-9.38-6.76-16.89,14.61-6.75,30.51-10.28,46.61-10.36,11.71,0,20.79,3.12,27.25,9.35s9.69,15.65,9.68,28.26v46.16c0,9.31,2.1,15.76,6.31,19.37h-.02Zm-55.84-5.18c9.61,0,18.46-4.5,26.57-13.51v-21.39c-3.01-.3-6.16-.53-9.46-.68s-6.75-.23-10.36-.23c-6.9,0-12.27,1.69-16.1,5.07-3.83,3.38-5.93,8.3-5.74,13.4,0,5.55,1.35,9.65,4.05,12.72,2.79,3.12,6.84,4.81,11.03,4.62h0Z"/>
    <path id="Path_2509" data-name="Path 2509" class="cls-2" d="m340.47,100.56v-2.47c0-16.96-6.57-25.44-19.71-25.45-7.17,0-12.7,3.45-16.58,10.36-3.88,6.91-5.82,17.19-5.83,30.85,0,25.82,8.45,38.73,25.36,38.73,8.38,0,17.42-3.75,27.15-11.26,2.41,1.5,4.48,3.5,6.06,5.86,1.77,2.35,3.07,5.03,3.81,7.88-10.56,10.88-25.15,16.91-40.31,16.66-7.12.18-14.18-1.32-20.6-4.39-5.72-2.87-10.66-7.08-14.41-12.27-4.03-5.7-6.94-12.12-8.56-18.91-1.95-7.96-2.89-16.13-2.81-24.32-.11-8.31,1.18-16.57,3.83-24.44,2.23-6.57,5.71-12.65,10.24-17.9,4.12-4.69,9.19-8.44,14.86-11.03,5.62-2.55,11.73-3.86,17.9-3.83,5.87-.09,11.71.9,17.23,2.93,4.7,1.76,9.05,4.35,12.83,7.65,3.44,3.03,6.2,6.75,8.11,10.92,1.83,3.92,2.79,8.18,2.82,12.5,0,8.56-3.9,12.84-11.71,12.83-3.25.06-6.5-.24-9.69-.9h0Z"/>
    <path id="Path_2510" data-name="Path 2510" class="cls-2" d="m451.25,159.34c-8.26,8.26-19.14,12.39-32.65,12.39-7.13.14-14.2-1.28-20.71-4.17-5.94-2.72-11.15-6.81-15.2-11.93-4.3-5.5-7.51-11.76-9.46-18.46-4.36-15.65-4.36-32.2,0-47.86,1.94-6.74,5.15-13.04,9.46-18.57,4.05-5.12,9.26-9.21,15.2-11.93,13.25-5.55,28.18-5.55,41.43,0,5.94,2.72,11.15,6.81,15.2,11.93,4.31,5.53,7.52,11.84,9.46,18.57,2.25,7.75,3.35,15.8,3.27,23.87,0,20.12-5.33,35.5-15.99,46.16h0Zm-32.54-86.92c-16.29,0-24.43,13.59-24.43,40.76,0,27.17,8.15,40.76,24.43,40.76,16.29,0,24.66-13.58,24.66-40.76s-8.22-40.76-24.66-40.76h0Z"/>
    <path id="Path_2511" data-name="Path 2511" class="cls-2" d="m472.2,68.36c1.16-5.07,4.23-9.5,8.56-12.39,10.36,2.25,17.19,8.93,20.49,20.04,6-13.36,15.83-20.04,29.5-20.04,4.01.04,8.01.5,11.94,1.35,0,8.71-1.88,16.06-5.63,22.07-3.03-.67-6.13-1.05-9.24-1.13-10.21,0-18.24,5.7-24.09,17.11v73.42c-7.69,1.2-15.51,1.2-23.19,0v-77.24c0-10.2-2.78-17.94-8.33-23.19h0s0,0,0,0Z"/>
    <path id="Path_2512" data-name="Path 2512" class="cls-2" d="m642.88,92.46v52.47c0,8.86,1.28,15.69,3.83,20.49-3.82,3.27-8.71,5.03-13.74,4.95-5.26,0-8.59-1.24-10.47-3.72s-2.82-6.19-2.82-11.15v-57.19c0-7.8-1.01-13.36-3.04-16.66s-5.52-4.95-10.47-4.95c-5.28.08-10.48,1.35-15.2,3.72-5.18,2.47-9.81,5.96-13.62,10.24v78.14c-3.79.71-7.64,1.01-11.49.9-2.4,0-4.58-.08-6.53-.23-1.74-.12-3.47-.35-5.18-.68V58.01l1.35-1.35h8.78c8.11,0,12.39,4.65,12.83,13.96,10.96-10.06,22.89-15.08,35.8-15.09,10.06,0,17.56,3.34,22.52,10.02,4.96,6.68,7.43,15.65,7.43,26.91h0,0Z"/>
  </g>
  <path id="Path_2568" data-name="Path 2568" class="cls-5" d="m745.1,20.85c-4.42-.1-8.84.19-13.21.87l-48.95,146.42.65,1.08c3.74,1.03,7.6,1.54,11.47,1.52,3.27.07,6.54-.22,9.75-.87l11.48-36.17,12.56.22h29.68l13-.22,8.01,25.34c1.44,4.62,3.18,7.79,5.2,9.53,2.02,1.74,5.42,2.6,10.18,2.6,4.11.18,8.19-.88,11.7-3.03l-48.52-146.42c-4.3-.68-8.65-.97-13-.87h0Zm9.75,94.01h-21.66l-11.05.22,12.56-39.21c3.89-12.99,6.71-23.46,8.45-31.41h1.09c2.6,9.97,6.42,23.03,11.48,39.2l9.96,31.41c-1.3,0-4.91-.07-10.83-.22h0Z"/>
  <path id="Path_2569" data-name="Path 2569" class="cls-4" d="m831.63,20.85c-3.81-.07-7.62.22-11.37.87v147.94c3.75.65,7.56.94,11.37.87,3.88.06,7.76-.23,11.58-.87V21.72c-3.83-.64-7.71-.93-11.58-.87Z"/>
</svg>